<svg width="115" height="55" viewBox="0 0 115 55" fill="none" xmlns="http://www.w3.org/2000/svg">
<path d="M12.9559 54.7808V48.507C6.30177 47.3663 1.73896 43.2471 0.661635 36.086H7.50584C8.13956 40.6488 11.8785 43.1203 17.0751 43.1203C22.1448 43.1203 24.8065 40.5854 24.8065 37.0366C24.8065 26.5802 1.61222 33.6779 1.61222 17.9615C1.61222 12.5749 5.5413 7.5685 12.9559 6.61791V0.4708H19.3565V6.74466C25.2501 7.88536 29.8129 11.6877 30.5733 18.8488H23.6658C22.9687 14.1592 19.9268 12.1313 15.364 12.1313C10.9279 12.1313 8.58317 14.4761 8.58317 17.9615C8.58317 27.5308 31.7774 21.0034 31.7774 36.4029C31.7774 43.5639 26.6443 47.9366 19.3565 48.6971V54.7808H12.9559ZM50.8634 48.8238C40.6604 48.8238 34.7668 40.9657 34.7668 27.6575C34.7668 14.0325 40.7872 6.4278 50.8634 6.4278C61.0029 6.4278 66.8965 14.286 66.8965 27.6575C66.8965 41.2825 60.8762 48.8238 50.8634 48.8238ZM50.8634 43.057C56.757 43.057 59.989 37.6069 59.989 27.6575C59.989 17.7714 56.6936 12.1947 50.8634 12.1947C44.9697 12.1947 41.6744 17.6447 41.6744 27.6575C41.6744 37.4168 44.9697 43.057 50.8634 43.057ZM70.7731 48V40.2052H78.6313V48H70.7731ZM114.457 34.375C114.457 42.7401 109.134 48.8238 99.1213 48.8238C89.9324 48.8238 84.2922 44.1343 83.1515 36.3395H89.9324C90.6295 40.5221 93.6079 43.1203 99.058 43.1203C104.761 43.1203 107.677 39.8884 107.677 34.5017C107.677 30.0023 105.522 25.5662 98.9946 25.5662C94.6853 25.5662 92.2138 27.4674 90.8196 29.5587L84.7358 28.9883L86.0033 7.25164H112.493V12.5749H91.4533L90.8196 22.6511C93.101 21.0034 95.826 19.9261 99.5649 19.9261C110.275 19.9261 114.457 26.6435 114.457 34.375Z" fill="white"/>
</svg>
